<?xml version="1.0" encoding="iso-8859-1"?>
<!-- Generator: Adobe Illustrator 19.0.0, SVG Export Plug-In . SVG Version: 6.00 Build 0)  -->
<svg version="1.1" id="Layer_1" xmlns="http://www.w3.org/2000/svg" xmlns:xlink="http://www.w3.org/1999/xlink" x="0px" y="0px"
	 viewBox="0 0 380 380" style="enable-background:new 0 0 380 380;" xml:space="preserve">
<g>
	<g>
		<g>
			<path d="M60,187.5v25h20v-15h20v-20H70C64.478,177.5,60,181.978,60,187.5z"/>
			<path d="M360,77.5v35h-30c-5.522,0-10,4.478-10,10v25h-75v-15c0-11.028-8.972-20-20-20h-20v-35h35c11.028,0,20-8.972,20-20v-15
				c0-11.028-8.972-20-20-20h-55v-15h-20v15h-50c-11.028,0-20,8.972-20,20v15c0,11.028,8.972,20,20,20h35v35h-20
				c-11.028,0-20,8.972-20,20v15H50c-11.028,0-20,8.972-20,20v150H10c-5.522,0-10,4.478-10,10v35c0,5.522,4.478,10,10,10h130
				c5.522,0,10-4.478,10-10v-35c0-5.522-4.478-10-10-10h-20v-80h200v25c0,5.522,4.478,10,10,10h30v45h20v-240H360z M115,57.5v-15
				h125v15h-45c-5.522,0-10,4.478-10,10v45h-15v-45c0-5.522-4.478-10-10-10H115z M130,132.5h95v15h-95V132.5z M130,337.5v15H20v-15
				H130z M360,252.5h-20v-25c0-5.522-4.478-10-10-10H110c-5.522,0-10,4.478-10,10v90H50v-150h270v40h20v-75h20V252.5z"/>
		</g>
	</g>
</g>
<g>
</g>
<g>
</g>
<g>
</g>
<g>
</g>
<g>
</g>
<g>
</g>
<g>
</g>
<g>
</g>
<g>
</g>
<g>
</g>
<g>
</g>
<g>
</g>
<g>
</g>
<g>
</g>
<g>
</g>
</svg>
